<svg xmlns="http://www.w3.org/2000/svg" width="230" height="45" viewBox="0 0 230 45">
    <defs>
        <style>
            .cls-2{fill:#f9c030}
        </style>
    </defs>
    <g id="logo" transform="translate(-263 -15)">
        <g id="Сгруппировать_1225">
            <path id="Контур_1174" d="M1135.489 487.506a4.294 4.294 0 1 0 8.588 0v-17.529h-8.588z" class="cls-2" transform="translate(-843.684 -431.93)"/>
            <path id="Контур_1175" fill="#1d1d1d" d="M1122.232 448.845l-24.406.042a17.006 17.006 0 0 0-10.574 29.718l.05.044a13.126 13.126 0 0 0 8.7 3.3h8.777a4.3 4.3 0 0 0 4.244-4.953 4.386 4.386 0 0 0-4.377-3.636h-6.946a7.56 7.56 0 0 1-7.62-6.938c-.011-.177-.017-.355-.017-.534a8.485 8.485 0 0 1 7.76-8.442l24.406-.013a4.294 4.294 0 1 0 0-8.588z" transform="translate(-818.526 -422.061)"/>
            <path id="Контур_1176" d="M1116.356 426.948a4.294 4.294 0 0 0-4.294 4.294V454.1a4.294 4.294 0 0 0 8.588 0v-22.858a4.294 4.294 0 0 0-4.294-4.294z" class="cls-2" transform="translate(-832.762 -411.948)"/>
            <path id="Контур_1143" d="M1090.488 439.2v-5.177a4.294 4.294 0 1 0-8.589 0v13.266a17.14 17.14 0 0 1 8.589-8.089z" class="cls-2" transform="translate(-818.7 -413.232)"/>
        </g>
        <g id="Сгруппировать_1230" transform="translate(4.483)">
            <g id="Сгруппировать_1223" transform="translate(318.517 30.638)">
                <path id="Контур_1161" d="M1185.176 495.551h7.681v1.791H1190v7.5h-1.977v-7.5h-2.852z" transform="translate(-1185.176 -478.481)"/>
                <path id="Контур_1162" d="M1200.4 495.551h6.54v1.749h-4.55v1.977h4.152v1.738h-4.152v2.07h4.63v1.751h-6.62z" transform="translate(-1191.22 -478.481)"/>
                <path id="Контур_1163" d="M1215.062 504.837h-2.322l3.33-4.816-3.131-4.471h2.322l2.056 3.051 2.043-3.051h2.335l-3.131 4.471 3.33 4.816h-2.335l-2.242-3.383z" transform="translate(-1196.119 -478.481)"/>
                <path id="Контур_1164" d="M1236.144 495.551h1.99v9.286h-1.99V501.1h-4.166v3.741h-1.99v-9.286h1.99v3.741h4.166z" transform="translate(-1202.966 -478.481)"/>
                <path id="Контур_1165" d="M1246.8 501.89a5.455 5.455 0 0 1 0-3.636 4.674 4.674 0 0 1 .915-1.538 4.233 4.233 0 0 1 1.559-1.075 6 6 0 0 1 4.3 0 4.232 4.232 0 0 1 1.559 1.075 4.687 4.687 0 0 1 .915 1.538 5.457 5.457 0 0 1 0 3.636 4.687 4.687 0 0 1-.915 1.538 4.24 4.24 0 0 1-1.559 1.075 6.011 6.011 0 0 1-4.3 0 4.241 4.241 0 0 1-1.559-1.075 4.674 4.674 0 0 1-.915-1.538zm6.759.318a3.392 3.392 0 0 0 0-4.272 3.128 3.128 0 0 0-4.285 0 3.395 3.395 0 0 0 0 4.272 3.128 3.128 0 0 0 4.285 0z" transform="translate(-1209.516 -478.359)"/>
                <path id="Контур_1166" d="M1266.565 495.551h6.368v9.286h-1.991v-7.5h-2.542q-.08 1.009-.146 1.678t-.2 1.546a13.731 13.731 0 0 1-.285 1.447 10.063 10.063 0 0 1-.4 1.173 3.313 3.313 0 0 1-.557.955 2.654 2.654 0 0 1-.75.584 2.069 2.069 0 0 1-.982.232 3.018 3.018 0 0 1-1.035-.172v-1.751a2.037 2.037 0 0 0 .637.066.856.856 0 0 0 .464-.166 1.327 1.327 0 0 0 .378-.464 5.775 5.775 0 0 0 .291-.637 4.625 4.625 0 0 0 .22-.862q.092-.537.159-.955t.126-1.094q.061-.677.094-1.1t.08-1.167q.045-.741.071-1.099z" transform="translate(-1216.486 -478.481)"/>
                <path id="Контур_1167" d="M1282.088 501.89a5.459 5.459 0 0 1 0-3.636 4.681 4.681 0 0 1 .916-1.538 4.225 4.225 0 0 1 1.558-1.075 6 6 0 0 1 4.3 0 4.234 4.234 0 0 1 1.559 1.075 4.686 4.686 0 0 1 .915 1.538 5.447 5.447 0 0 1 0 3.636 4.687 4.687 0 0 1-.915 1.538 4.242 4.242 0 0 1-1.559 1.075 6.011 6.011 0 0 1-4.3 0 4.233 4.233 0 0 1-1.558-1.075 4.681 4.681 0 0 1-.916-1.538zm6.76.318a3.392 3.392 0 0 0 0-4.272 3.128 3.128 0 0 0-4.285 0 3.4 3.4 0 0 0 0 4.272 3.128 3.128 0 0 0 4.285 0z" transform="translate(-1223.525 -478.359)"/>
                <path id="Контур_1168" d="M1303.128 504.837h-1.99v-9.286h6.487v1.791h-4.5z" transform="translate(-1231.211 -478.481)"/>
                <path id="Контур_1169" d="M1322.5 504.837h-1.99v-4.789q0-.7.04-1.274l-4.325 6.063h-1.871v-9.286h1.99v4.789q0 .7-.04 1.274l4.325-6.063h1.87z" transform="translate(-1236.46 -478.481)"/>
                <path id="Контур_1170" d="M1339.862 504.837h-1.99v-4.789q0-.7.039-1.274l-4.325 6.063h-1.87v-9.286h1.99v4.789q0 .7-.04 1.274l4.325-6.063h1.871z" transform="translate(-1243.351 -478.481)"/>
            </g>
        </g>
        <g id="Сгруппировать_1229" transform="translate(322.177 28.638)">
            <path id="Контур_1144" d="M1192.7 467.551h1.99v9.286h-1.99V473.1h-4.166v3.741h-1.99v-9.286h1.99v3.741h4.166z" transform="translate(-1185.718 -467.365)"/>
            <path id="Контур_1145" d="M1203.351 473.89a5.455 5.455 0 0 1 0-3.636 4.658 4.658 0 0 1 .916-1.538 4.231 4.231 0 0 1 1.559-1.075 6 6 0 0 1 4.3 0 4.232 4.232 0 0 1 1.559 1.075 4.682 4.682 0 0 1 .915 1.538 5.455 5.455 0 0 1 0 3.636 4.682 4.682 0 0 1-.915 1.538 4.239 4.239 0 0 1-1.559 1.075 6.01 6.01 0 0 1-4.3 0 4.238 4.238 0 0 1-1.559-1.075 4.657 4.657 0 0 1-.916-1.538zm6.759.318a3.392 3.392 0 0 0 0-4.272 3.128 3.128 0 0 0-4.285 0 3.4 3.4 0 0 0 0 4.272 3.128 3.128 0 0 0 4.285 0z" transform="translate(-1192.267 -467.243)"/>
            <path id="Контур_1146" d="M1222.4 467.551h4.059a4.089 4.089 0 0 1 2.368.59 2.007 2.007 0 0 1 .843 1.758 1.946 1.946 0 0 1-1.406 2.03 2.676 2.676 0 0 1 1.273.789 2.2 2.2 0 0 1 .5 1.52 2.411 2.411 0 0 1-.332 1.293 2.067 2.067 0 0 1-.9.8 5.043 5.043 0 0 1-1.154.385 6.385 6.385 0 0 1-1.267.119h-3.984zm5.651 6.474q0-1.194-1.579-1.193h-2.1v2.388h1.99a2.546 2.546 0 0 0 1.234-.252.985.985 0 0 0 .454-.943zm-.358-3.78q0-1.062-1.406-1.062h-1.9v2.123h2a1.515 1.515 0 0 0 .942-.272.93.93 0 0 0 .363-.789z" transform="translate(-1199.953 -467.365)"/>
            <path id="Контур_1147" d="M1241.565 476.837h-3.5v-9.286h1.99v3.049h1.512q4.007.027 4.006 3.118-.001 3.12-4.008 3.119zm-1.512-4.483v2.732h1.605q1.883 0 1.884-1.366t-1.884-1.366zm8.265 4.483h-1.989v-9.286h1.989z" transform="translate(-1206.171 -467.365)"/>
            <path id="Контур_1148" d="M1258.919 467.551h6.54v1.749h-4.55v1.977h4.152v1.738h-4.152v2.07h4.629v1.751h-6.619z" transform="translate(-1214.451 -467.365)"/>
            <path id="Контур_1149" d="M1277.618 472.178a5.375 5.375 0 0 1 .431-2.2 4.141 4.141 0 0 1 1.141-1.559 5.027 5.027 0 0 1 1.585-.882 5.636 5.636 0 0 1 1.831-.3 5.848 5.848 0 0 1 2.653.6v1.9a3.674 3.674 0 0 0-2.322-.73 3.493 3.493 0 0 0-2.314.8 2.907 2.907 0 0 0-.963 2.368 3 3 0 0 0 .279 1.32 2.426 2.426 0 0 0 .75.923 3.567 3.567 0 0 0 1.048.524 4.045 4.045 0 0 0 1.2.179 3.429 3.429 0 0 0 2.388-.77v1.949a6.107 6.107 0 0 1-2.692.6 5.746 5.746 0 0 1-1.831-.292 5.39 5.39 0 0 1-1.6-.849 3.913 3.913 0 0 1-1.154-1.486 4.918 4.918 0 0 1-.43-2.095z" transform="translate(-1221.874 -467.243)"/>
            <path id="Контур_1150" d="M1292.051 467.551h7.681v1.791h-2.852v7.5h-1.98v-7.5h-2.852z" transform="translate(-1227.604 -467.365)"/>
            <path id="Контур_1151" d="M1307.274 467.551h3.5q4.007 0 4.006 3.118t-4.006 3.118h-1.512v3.051h-1.99zm5.479 3.118q0-1.366-1.884-1.366h-1.605v2.733h1.605q1.883-.001 1.884-1.367z" transform="translate(-1233.647 -467.365)"/>
            <path id="Контур_1152" d="M1321.951 473.89a5.463 5.463 0 0 1 0-3.636 4.68 4.68 0 0 1 .916-1.538 4.226 4.226 0 0 1 1.559-1.075 6 6 0 0 1 4.3 0 4.234 4.234 0 0 1 1.559 1.075 4.673 4.673 0 0 1 .915 1.538 5.445 5.445 0 0 1 0 3.636 4.672 4.672 0 0 1-.915 1.538 4.24 4.24 0 0 1-1.559 1.075 6.01 6.01 0 0 1-4.3 0 4.233 4.233 0 0 1-1.559-1.075 4.679 4.679 0 0 1-.916-1.538zm6.759.318a3.393 3.393 0 0 0 0-4.272 3.127 3.127 0 0 0-4.285 0 3.394 3.394 0 0 0 0 4.272 3.127 3.127 0 0 0 4.285 0z" transform="translate(-1239.35 -467.243)"/>
            <path id="Контур_1153" d="M1349.146 476.837h-1.99v-4.789q0-.7.039-1.273l-4.324 6.063H1341v-9.286h1.99v4.789q0 .7-.04 1.274l4.325-6.063h1.871z" transform="translate(-1247.036 -467.365)"/>
            <path id="Контур_1154" d="M1356.994 467.551h7.681v1.791h-2.852v7.5h-1.977v-7.5h-2.852z" transform="translate(-1253.385 -467.365)"/>
            <path id="Контур_1155" d="M1372.218 467.551h6.54v1.749h-4.55v1.977h4.152v1.738h-4.152v2.07h4.629v1.751h-6.619z" transform="translate(-1259.429 -467.365)"/>
            <path id="Контур_1156" d="M1387.41 467.551h6.369v9.286h-1.991v-7.5h-2.547q-.079 1.009-.146 1.678t-.2 1.545a13.731 13.731 0 0 1-.285 1.447 9.891 9.891 0 0 1-.4 1.173 3.309 3.309 0 0 1-.557.955 2.648 2.648 0 0 1-.75.584 2.066 2.066 0 0 1-.982.232 3.013 3.013 0 0 1-1.034-.172v-1.751a2.034 2.034 0 0 0 .636.066.858.858 0 0 0 .465-.166 1.326 1.326 0 0 0 .378-.464 5.921 5.921 0 0 0 .291-.637 4.584 4.584 0 0 0 .219-.862q.093-.537.159-.955c.044-.279.087-.643.126-1.094s.071-.818.093-1.1.048-.672.08-1.167.059-.859.076-1.098z" transform="translate(-1264.46 -467.365)"/>
            <path id="Контур_1157" d="M1406.981 476.837h-3.5v-9.286h1.99v3.049h1.512q4.007.027 4.006 3.118-.001 3.12-4.008 3.119zm-1.512-4.483v2.732h1.605q1.883 0 1.884-1.366t-1.884-1.366z" transform="translate(-1271.839 -467.365)"/>
            <path id="Контур_1158" d="M1424.859 467.551h1.99v9.286h-1.99V473.1h-4.166v3.741h-1.99v-9.286h1.99v3.741h4.166z" transform="translate(-1277.883 -467.365)"/>
            <path id="Контур_1159" d="M1439.564 476.837h-3.5v-9.286h1.989v3.049h1.512q4.007.027 4.006 3.118-.001 3.12-4.007 3.119zm-1.512-4.483v2.732h1.605q1.883 0 1.884-1.366t-1.884-1.366zm8.265 4.483h-1.989v-9.286h1.989z" transform="translate(-1284.775 -467.365)"/>
            <path id="Контур_1160" d="M1456.917 467.551h6.54v1.749h-4.55v1.977h4.152v1.738h-4.152v2.07h4.63v1.751h-6.62z" transform="translate(-1293.054 -467.365)"/>
        </g>
    </g>
</svg>
