<svg xmlns="http://www.w3.org/2000/svg" width="148" height="80" viewBox="0 0 148 80">
    <defs>
        <style>
            .cls-2{fill:#f9c030}
        </style>
    </defs>
    <g id="logo_1" transform="translate(-317 28)">
        <g id="Сгруппировать_1298">
            <g id="Сгруппировать_1225" transform="translate(371 -28)">
                <path id="Контур_1174" d="M1135.489 485.193a3.727 3.727 0 0 0 7.454 0v-15.216h-7.454z" class="cls-2" transform="translate(-1110.486 -449.774)"/>
                <path id="Контур_1175" fill="#1d1d1d" d="M1116.755 448.845l-21.122.036a14.718 14.718 0 0 0-9.151 25.72l.043.038a11.36 11.36 0 0 0 7.532 2.856h7.6a3.723 3.723 0 0 0 3.673-4.286 3.8 3.8 0 0 0-3.788-3.147h-6.01a6.543 6.543 0 0 1-6.6-6c-.009-.153-.014-.307-.014-.462a7.344 7.344 0 0 1 6.716-7.306l21.122-.012a3.716 3.716 0 1 0 0-7.432z" transform="translate(-1081.526 -438.515)"/>
                <path id="Контур_1176" d="M1115.789 426.948a3.727 3.727 0 0 0-3.727 3.727v19.842a3.727 3.727 0 0 0 7.454 0v-19.842a3.727 3.727 0 0 0-3.727-3.727z" class="cls-2" transform="translate(-1097.913 -426.948)"/>
                <path id="Контур_1143" d="M1089.355 438.028v-4.538a3.728 3.728 0 1 0-7.455 0v11.629a14.938 14.938 0 0 1 7.455-7.091z" class="cls-2" transform="translate(-1081.727 -428.415)"/>
            </g>
            <g id="Сгруппировать_1230" transform="translate(349 43.617)">
                <g id="Сгруппировать_1223">
                    <path id="Контур_1161" d="M1185.176 495.551h6.667v1.555h-2.476v6.506h-1.716v-6.506h-2.475z" transform="translate(-1185.176 -495.39)"/>
                    <path id="Контур_1162" d="M1200.4 495.551h5.677v1.52h-3.95v1.716h3.6v1.513h-3.6v1.8h4.019v1.52h-5.746z" transform="translate(-1192.432 -495.39)"/>
                    <path id="Контур_1163" d="M1214.756 503.612h-2.015l2.89-4.18-2.717-3.881h2.015l1.785 2.648 1.773-2.648h2.027l-2.718 3.881 2.89 4.18h-2.026l-1.946-2.936z" transform="translate(-1198.313 -495.39)"/>
                    <path id="Контур_1164" d="M1235.332 495.551h1.727v8.061h-1.727v-3.247h-3.616v3.247h-1.727v-8.061h1.727v3.249h3.616z" transform="translate(-1206.533 -495.39)"/>
                    <path id="Контур_1165" d="M1246.76 501.013a4.733 4.733 0 0 1 0-3.156 4.056 4.056 0 0 1 .794-1.335 3.674 3.674 0 0 1 1.353-.933 5.21 5.21 0 0 1 3.731 0 3.675 3.675 0 0 1 1.353.933 4.071 4.071 0 0 1 .795 1.335 4.737 4.737 0 0 1 0 3.156 4.07 4.07 0 0 1-.795 1.335 3.68 3.68 0 0 1-1.353.933 5.219 5.219 0 0 1-3.731 0 3.679 3.679 0 0 1-1.353-.933 4.055 4.055 0 0 1-.794-1.335zm5.867.276a2.945 2.945 0 0 0 0-3.708 2.715 2.715 0 0 0-3.719 0 2.946 2.946 0 0 0 0 3.708 2.715 2.715 0 0 0 3.719 0z" transform="translate(-1214.397 -495.243)"/>
                    <path id="Контур_1166" d="M1266.233 495.551h5.527v8.061h-1.728v-6.506h-2.21q-.069.875-.127 1.457t-.173 1.342a11.88 11.88 0 0 1-.247 1.256 8.729 8.729 0 0 1-.345 1.019 2.872 2.872 0 0 1-.484.829 2.3 2.3 0 0 1-.651.507 1.8 1.8 0 0 1-.852.2 2.62 2.62 0 0 1-.9-.15v-1.52a1.769 1.769 0 0 0 .553.058.742.742 0 0 0 .4-.144 1.151 1.151 0 0 0 .328-.4 4.965 4.965 0 0 0 .253-.553 4.014 4.014 0 0 0 .191-.749q.08-.466.138-.829t.109-.95c.035-.391.062-.71.081-.956s.042-.583.069-1.013.052-.752.068-.959z" transform="translate(-1222.764 -495.39)"/>
                    <path id="Контур_1167" d="M1282.047 501.013a4.741 4.741 0 0 1 0-3.156 4.063 4.063 0 0 1 .8-1.335 3.668 3.668 0 0 1 1.352-.933 5.21 5.21 0 0 1 3.731 0 3.675 3.675 0 0 1 1.353.933 4.071 4.071 0 0 1 .795 1.335 4.731 4.731 0 0 1 0 3.156 4.07 4.07 0 0 1-.795 1.335 3.68 3.68 0 0 1-1.353.933 5.219 5.219 0 0 1-3.731 0 3.673 3.673 0 0 1-1.352-.933 4.062 4.062 0 0 1-.8-1.335zm5.867.276a2.945 2.945 0 0 0 0-3.708 2.715 2.715 0 0 0-3.72 0 2.949 2.949 0 0 0 0 3.708 2.715 2.715 0 0 0 3.72 0z" transform="translate(-1231.215 -495.243)"/>
                    <path id="Контур_1168" d="M1302.865 503.612h-1.727v-8.061h5.631v1.555h-3.9z" transform="translate(-1240.442 -495.39)"/>
                    <path id="Контур_1169" d="M1321.429 503.612h-1.729v-4.157q0-.61.035-1.105l-3.754 5.262h-1.624v-8.061h1.728v4.157q0 .611-.035 1.105l3.754-5.262h1.623z" transform="translate(-1246.743 -495.39)"/>
                    <path id="Контур_1170" d="M1338.787 503.612h-1.727v-4.157q0-.61.034-1.105l-3.754 5.262h-1.623v-8.061h1.727v4.157q0 .611-.035 1.105l3.754-5.262h1.624z" transform="translate(-1255.016 -495.39)"/>
                </g>
            </g>
            <g id="Сгруппировать_1229" transform="translate(317 26.944)">
                <path id="Контур_1144" d="M1191.883 467.551h1.727v8.061h-1.727v-3.247h-3.616v3.247h-1.727v-8.061h1.727v3.249h3.616z" transform="translate(-1186.54 -467.39)"/>
                <path id="Контур_1145" d="M1203.309 473.013a4.733 4.733 0 0 1 0-3.156 4.044 4.044 0 0 1 .795-1.335 3.673 3.673 0 0 1 1.353-.933 5.209 5.209 0 0 1 3.731 0 3.675 3.675 0 0 1 1.353.933 4.064 4.064 0 0 1 .795 1.335 4.737 4.737 0 0 1 0 3.156 4.063 4.063 0 0 1-.795 1.335 3.68 3.68 0 0 1-1.353.933 5.217 5.217 0 0 1-3.731 0 3.677 3.677 0 0 1-1.353-.933 4.043 4.043 0 0 1-.795-1.335zm5.867.276a2.945 2.945 0 0 0 0-3.708 2.715 2.715 0 0 0-3.719 0 2.947 2.947 0 0 0 0 3.708 2.715 2.715 0 0 0 3.719 0z" transform="translate(-1194.403 -467.243)"/>
                <path id="Контур_1146" d="M1222.4 467.551h3.523a3.549 3.549 0 0 1 2.056.512 1.742 1.742 0 0 1 .731 1.526 1.689 1.689 0 0 1-1.221 1.762 2.322 2.322 0 0 1 1.105.685 1.906 1.906 0 0 1 .438 1.319 2.092 2.092 0 0 1-.288 1.122 1.8 1.8 0 0 1-.777.7 4.37 4.37 0 0 1-1 .334 5.54 5.54 0 0 1-1.1.1h-3.467zm4.905 5.619q0-1.036-1.37-1.036h-1.819v2.073h1.727a2.209 2.209 0 0 0 1.071-.219.854.854 0 0 0 .386-.818zm-.311-3.281q0-.922-1.221-.922h-1.646v1.842h1.739a1.316 1.316 0 0 0 .818-.236.808.808 0 0 0 .31-.684z" transform="translate(-1203.63 -467.39)"/>
                <path id="Контур_1147" d="M1241.1 475.612h-3.04v-8.061h1.727v2.649h1.313q3.478.024 3.478 2.706.002 2.706-3.478 2.706zm-1.313-3.892v2.372h1.393q1.634 0 1.635-1.186t-1.635-1.186zm7.174 3.892h-1.727v-8.061h1.727z" transform="translate(-1211.095 -467.39)"/>
                <path id="Контур_1148" d="M1258.919 467.551h5.677v1.52h-3.949v1.716h3.6v1.513h-3.6v1.8h4.018v1.52h-5.746z" transform="translate(-1221.035 -467.39)"/>
                <path id="Контур_1149" d="M1277.618 471.527a4.665 4.665 0 0 1 .374-1.906 3.593 3.593 0 0 1 .991-1.353 4.366 4.366 0 0 1 1.376-.766 4.891 4.891 0 0 1 1.59-.259 5.075 5.075 0 0 1 2.3.518v1.647a3.189 3.189 0 0 0-2.015-.633 3.031 3.031 0 0 0-2.009.7 2.523 2.523 0 0 0-.836 2.055 2.6 2.6 0 0 0 .242 1.146 2.106 2.106 0 0 0 .651.8 3.1 3.1 0 0 0 .91.455 3.513 3.513 0 0 0 1.042.155 2.976 2.976 0 0 0 2.073-.668v1.693a5.3 5.3 0 0 1-2.337.518 4.985 4.985 0 0 1-1.59-.253 4.68 4.68 0 0 1-1.388-.737 3.4 3.4 0 0 1-1-1.29 4.269 4.269 0 0 1-.374-1.822z" transform="translate(-1229.947 -467.243)"/>
                <path id="Контур_1150" d="M1292.051 467.551h6.667v1.555h-2.476v6.506h-1.716v-6.506h-2.475z" transform="translate(-1236.825 -467.39)"/>
                <path id="Контур_1151" d="M1307.274 467.551h3.04q3.478 0 3.477 2.706t-3.477 2.707H1309v2.648h-1.727zm4.756 2.706q0-1.186-1.635-1.186H1309v2.372h1.393q1.636 0 1.637-1.186z" transform="translate(-1244.08 -467.39)"/>
                <path id="Контур_1152" d="M1321.91 473.013a4.741 4.741 0 0 1 0-3.156 4.061 4.061 0 0 1 .795-1.335 3.669 3.669 0 0 1 1.353-.933 5.209 5.209 0 0 1 3.731 0 3.673 3.673 0 0 1 1.353.933 4.051 4.051 0 0 1 .794 1.335 4.727 4.727 0 0 1 0 3.156 4.05 4.05 0 0 1-.794 1.335 3.677 3.677 0 0 1-1.353.933 5.217 5.217 0 0 1-3.731 0 3.674 3.674 0 0 1-1.353-.933 4.06 4.06 0 0 1-.795-1.335zm5.867.276a2.946 2.946 0 0 0 0-3.708 2.714 2.714 0 0 0-3.719 0 2.946 2.946 0 0 0 0 3.708 2.714 2.714 0 0 0 3.719 0z" transform="translate(-1250.927 -467.243)"/>
                <path id="Контур_1153" d="M1348.07 475.612h-1.727v-4.157q0-.61.034-1.105l-3.753 5.262H1341v-8.061h1.727v4.157q0 .611-.035 1.105l3.754-5.262h1.624z" transform="translate(-1260.154 -467.39)"/>
                <path id="Контур_1154" d="M1356.994 467.551h6.667v1.555h-2.476v6.506h-1.716v-6.506h-2.476z" transform="translate(-1267.776 -467.39)"/>
                <path id="Контур_1155" d="M1372.218 467.551h5.676v1.52h-3.949v1.716h3.6v1.513h-3.6v1.8h4.018v1.52h-5.745z" transform="translate(-1275.032 -467.39)"/>
                <path id="Контур_1156" d="M1387.077 467.551h5.528v8.061h-1.728v-6.506h-2.211q-.068.876-.126 1.457t-.173 1.341a11.91 11.91 0 0 1-.247 1.256 8.58 8.58 0 0 1-.346 1.018 2.867 2.867 0 0 1-.483.829 2.3 2.3 0 0 1-.651.507 1.792 1.792 0 0 1-.852.2 2.613 2.613 0 0 1-.9-.15v-1.52a1.765 1.765 0 0 0 .552.058.746.746 0 0 0 .4-.144 1.154 1.154 0 0 0 .328-.4 5.109 5.109 0 0 0 .253-.553 3.979 3.979 0 0 0 .19-.748q.081-.466.138-.829c.038-.242.076-.558.109-.949l.081-.956c.02-.246.042-.583.069-1.013s.054-.752.069-.959z" transform="translate(-1281.072 -467.39)"/>
                <path id="Контур_1157" d="M1406.519 475.612h-3.04v-8.061h1.727v2.649h1.313q3.478.024 3.478 2.706.003 2.706-3.478 2.706zm-1.313-3.892v2.372h1.394q1.634 0 1.635-1.186t-1.635-1.186z" transform="translate(-1289.931 -467.39)"/>
                <path id="Контур_1158" d="M1424.046 467.551h1.727v8.061h-1.727v-3.247h-3.616v3.247h-1.73v-8.061h1.727v3.249h3.616z" transform="translate(-1297.186 -467.39)"/>
                <path id="Контур_1159" d="M1439.1 475.612h-3.04v-8.061h1.727v2.649h1.313q3.478.024 3.477 2.706.002 2.706-3.477 2.706zm-1.313-3.892v2.372h1.393q1.635 0 1.635-1.186t-1.635-1.186zm7.174 3.892h-1.727v-8.061h1.727z" transform="translate(-1305.459 -467.39)"/>
                <path id="Контур_1160" d="M1456.917 467.551h5.677v1.52h-3.949v1.716h3.6v1.513h-3.6v1.8h4.019v1.52h-5.746z" transform="translate(-1315.399 -467.39)"/>
            </g>
        </g>
    </g>
</svg>
